<?xml version="1.0" encoding="UTF-8"?>
<!DOCTYPE svg PUBLIC "-//W3C//DTD SVG 1.1//EN" "http://www.w3.org/Graphics/SVG/1.1/DTD/svg11.dtd">
<!-- Creator: CorelDRAW 2021 (64-Bit) -->
<svg xmlns="http://www.w3.org/2000/svg" xml:space="preserve" width="210mm" height="297mm" version="1.1" style="shape-rendering:geometricPrecision; text-rendering:geometricPrecision; image-rendering:optimizeQuality; fill-rule:evenodd; clip-rule:evenodd"
viewBox="0 0 21000 29700"
 xmlns:xlink="http://www.w3.org/1999/xlink"
 xmlns:xodm="http://www.corel.com/coreldraw/odm/2003">
 <defs>
  <style type="text/css">
   <![CDATA[
    .fil0 {fill:#01040B}
    .fil6 {fill:#85888A}
    .fil5 {fill:#92959B}
    .fil1 {fill:#A9ACB6}
    .fil2 {fill:#C2C5CB}
    .fil3 {fill:#D3D5D9}
    .fil4 {fill:#E3E5EA}
   ]]>
  </style>
 </defs>
 <g id="Layer_x0020_1">
  <metadata id="CorelCorpID_0Corel-Layer"/>
  <g id="_2566074362432">
   <path class="fil0" d="M13469.4 18086.42c435.1,-9.26 931.12,53.17 1314.34,176.98 316.84,102.36 856.26,269.88 1066.4,462.36 -49.91,102.15 -88.21,122.71 -201.98,222.67 -261.24,-51.43 -944.67,-485.11 -2153.25,-606.26l-924.02 -74.25c168,-105.23 650.58,-172.61 898.51,-181.5zm-6491.72 249.68c-411.25,65.76 -739.45,126.48 -1121.96,236.96 -179.05,51.71 -341.03,107.79 -515.62,172.21 -176.21,65.01 -335.68,152.45 -504.69,206.97 -92.93,-52 -173.12,-137.74 -225.01,-226.48 159.69,-150.13 793,-374.88 1050.71,-449.62 431.33,-125.1 820.68,-195.51 1304.39,-190.98 239.36,10.55 756.34,83.11 920.47,181.56l-908.29 69.38zm4697.81 -159.99l-130.62 92.58c-158.74,96.78 -364.72,266.92 -459.83,304.28 -43.82,-153.12 5.8,-145.44 85.91,-246.07 83.64,-105.07 118.86,-157.99 218.29,-217.18 17.55,-93.27 219.32,-233.85 306.02,-274.06 77.15,-158.42 780.25,-459.1 1044.32,-540.53 430.13,-132.66 924.63,-165.79 1403,-131.63 745.64,53.25 1837.87,402.66 2378.43,825.93l-45.69 77.53c-44.34,129.89 14.14,21.3 -66.45,92.3 -27.86,24.53 -44.9,40.36 -72.17,65.66 -154.37,-38.47 -356.21,-156.93 -521.76,-226.61 -163.84,-68.95 -367.95,-135.98 -548.8,-191.45 -1435.83,-440.45 -2322.27,-280.75 -3590.65,369.25zm-7608.13 -44.03c-60.46,-50.28 -66.29,-51.02 -102.87,-125.92l-7.53 -31.35c467.96,-244.81 478.49,-305.89 1080.04,-525.62 409.38,-149.52 818.66,-251.51 1304.49,-290.49 492.71,-39.55 1001.96,4.72 1441.49,149.18 302.86,99.55 558.9,212.29 819.73,379.79 74.25,47.69 151.1,123.08 215.35,154.06l259.56 233.17c129.83,128.53 363.28,294.73 309.91,486.42 -66.76,-6.7 -185.37,-118.27 -247.29,-162.14 -86.99,-61.63 -172.05,-121.61 -264.98,-182.26 -569.81,-390.3 -1526.45,-688.15 -2382.22,-648.4 -1311.65,60.93 -2120.51,608.3 -2359.67,660.42 -57.75,-58.67 -33.95,-28.15 -66.01,-96.86zm7271.61 -806.13c27.68,-369.7 689.27,-770.66 1091.44,-925.03 1156.5,-443.92 2254.3,-218.23 3365.75,213.44 178.76,69.44 1187.88,521.47 1301,689.51 -58.36,72.89 -107.18,157.57 -173.92,217.23 -137.98,-41.22 -453.61,-237.97 -620.28,-319.43 -1403.87,-686.22 -2939.55,-995.68 -4388.48,-220.33 -175.98,94.17 -508.47,329.95 -575.51,344.61zm-7970.22 -65.13c105.94,-33.98 216.63,-116.93 333.45,-179.04l1023.71 -480.01c1070.51,-437.36 2225.36,-630.87 3328.23,-202.82 346.97,134.68 1011.75,524.46 1071.51,925.25 -109.96,-38.55 -183.51,-118.5 -284.82,-182.09 -110.29,-69.24 -168.45,-112.75 -287.49,-170.64 -1541.94,-749.7 -2900.51,-483.73 -4390.2,239.83 -203.31,98.76 -398.81,226.08 -602.83,310.63 -72.91,-45.77 -161.18,-146.06 -191.56,-261.11zm14222.51 -2070.28l-32.87 61.26c14.8,15.64 19.48,42.94 35.1,56.57 112.5,20.59 452.64,156.83 519.21,230.15l-87.34 182.42c-139.56,-36.86 -416.97,-194.28 -804.4,-301.03 -338.21,-93.21 -529.34,-133.01 -820.65,-257.2l-42.56 152.23c231.63,45.71 1408.48,637.14 1503.68,761.68l-147.63 223.69c-120.08,-28.33 -557.64,-277.37 -714.16,-354.71 -722.72,-357.02 -1595.37,-686.82 -2425.69,-780.52 -629.97,-71.07 -1367.8,-40.85 -1937.99,139.5 -414.03,130.96 -1137.84,423.75 -1366.63,772.1l69.34 119.08c71.09,-31.8 209.58,-163.72 304.75,-225.23 117.62,-76.04 202.16,-125.8 316.89,-192.46 195.2,-113.42 510.26,-237.36 746.41,-301.58 1196.06,-325.21 2377.66,-152.56 3497.97,346.55 277.43,123.61 1013.18,491.4 1273.07,689.2 21.52,16.38 25.78,21.18 42.49,37.83l24.92 33.53c-43.96,97.93 -93.02,139.85 -127.26,234.02 -110.78,-23.08 -450.2,-215.5 -557.97,-274.12 -468.47,-254.87 -1242.62,-557.63 -1759.81,-687.5 -1675.97,-420.87 -2494.03,116.68 -2768.99,130.2 -71.23,74.02 -37.22,33.88 -164.3,100.54 -335.02,175.74 -734.47,466.9 -943.36,768.26l-49.67 -140.29c-341.12,-887.52 -1016.72,-1560.8 -490.02,-2163.02 172.29,-196.99 593.3,-463.44 938.97,-591.01 1907.03,-703.75 4553.62,229.86 6061.4,1073.74l-92.9 156.12zm-14872.91 -1724.61l2.15 -1164.95 335.6 -9.57 -5.82 946.56 -11.07 961.73 -317.08 154.14 -3.78 -887.91zm-739.27 -879.29l432.67 -1.5 -6.07 938.37 -1.14 1010.95 -345.22 159.75c-152.56,-625.29 -121.39,-943.68 -121.1,-1578.85 0.04,-91.54 -31.59,-495.81 40.86,-528.72zm14658.59 -40.31c0.5,-195.08 -30.48,-688.63 16.14,-846.95l483.78 3.02c64.21,278.2 -6.99,1092.48 8.12,1438.59l-9.56 927.72c-107.61,-11.69 -409.93,-126.84 -499.5,-188.25l1.02 -1334.13zm-13337.21 834.77l-1.28 -398.07 -0.6 -1281.48 523.25 4.65 -1.98 835.7 -2.17 1348.42 -509.5 192.31 -7.72 -701.53zm846.07 -220.12l239.3 -0.98 16.52 53.54 -2.56 497.82 -265.52 79.79c-3.67,-82.6 -21.18,-560.49 12.26,-630.17zm13899.43 350.28l7.53 -932.5 464.42 13.17 -12.5 1092.16c36.3,441.59 -31.22,633.31 -106.9,1030.22l-353.5 -186.35 0.95 -1016.7zm-1989.92 -251.44l-3.12 -94.92 260.68 0.49 7.03 84.56 -0.52 540.78 -268.25 -81.2 4.18 -449.71zm-562.7 -140.1l323.56 5.34 -5.64 498.96 -316.47 -69.56 -1.45 -434.74zm-227.71 383.57c-54.52,-73.51 -44.18,-219.26 -29.72,-312.68 18.53,-119.4 4.88,-37.56 29.72,-75.44 39.26,62.38 39.42,230.08 29.77,307.54 -12.57,101.04 -15.77,57.16 -29.77,80.58zm-10100.52 -105.59c-1.6,-25.79 0.13,-75.46 0.02,-103.93 -0.38,-89.67 -9.86,-115.11 27.3,-184.32 52.19,31.51 31.4,-51.97 45.06,79.86l-4.9 248.25c-24.35,122.19 8.19,13.57 -40.16,62.29l-27.32 -102.15zm9505.18 -522.54l320.03 -18.83c1.63,174.23 26.58,416.55 -13.83,581.18l-314.26 -80.01 8.06 -482.34zm-9223.5 -16.49l367.44 2.34 -1.43 483.85c-78.38,46.83 -262.4,88.31 -355.36,91.82l-10.65 -578.01zm-803.75 265.05l324.97 -4.91 -2.22 430.15 -309.19 92.5 -13.56 -517.74zm7776.74 -248.93l463.44 -12.09 2.36 359.49 -462.49 -29.97 -3.31 -317.43zm-4166.22 -305.07l2.89 -372.55c39.21,-57.75 -56.39,-33.93 96.79,-55.26 67.23,-9.36 65.74,-0.36 125.85,13.16l-4.56 1002.78 -216.55 3.85 -4.42 -591.98zm-684.51 299.83l456.03 -5.26 8.91 252.22c-8.1,48.84 -16.54,45.06 -27.79,66.18l-452.84 34.52 15.69 -347.66zm10166.59 479.56l-5.41 987.83c-117.12,-12.01 -209.28,-102.02 -326.34,-144.3l-2.85 -939.33 -8.51 -953.59 345.22 -7.9 -2.11 1057.29zm-5994.46 -1100.94l3.17 263.42 4.94 635.78 -168.83 -13.33 -9.58 -934.19c10.38,0.07 99.62,-2.33 99.93,-2.28 109.75,21.51 42.83,-29.88 70.37,50.6zm-696.64 883.91c-11.12,-322.41 -54.82,-1548.99 2.5,-1788.95l306.91 3.76 -4.54 1778.6c-91.54,30.73 -209.08,27.13 -304.87,6.59zm-1122.65 1.74c-14.3,-237.28 -64.18,-829.58 75.2,-977.38 110.29,-116.96 546.61,-258.49 546.49,346.87l-0.72 646.78 -620.97 -16.27zm-499.27 -1752.71l7.77 1329.4 -10.07 425.31 -293.84 1.19c-2.04,-343 -54.03,-1540.56 9.01,-1790.43 178.86,-12.18 251.35,-34.37 287.13,34.53zm-710.97 1107.64l7.98 -284.19 136.45 13.77c43.32,67.85 37.91,138.99 35.86,233.97l-3.99 687.34 -176.85 -0.14 0.55 -650.75zm6860.03 333.2c170.75,-3.28 229.65,-46.65 255.16,125.01l-632.33 -11.75 -0.58 -102.07c123.69,-18.51 252.21,-8.75 377.75,-11.19zm-10914.59 12.89c109.49,-35.96 490.02,-32.83 589.1,-0.07l1.51 110.13 -615.49 -8.53 24.88 -101.53zm8697.06 -11.99l4.71 -20.13c30.46,-40.56 -31.55,-33.44 94.21,-48.94l844.21 30.05 -26.22 517.56c-44.46,-77.29 -27.17,-96.55 -28.64,-211.51 -0.85,-67.8 -7.23,-135.34 -11.68,-206.39l-188.83 -1.6 -18.3 400.55 -321.59 -22.57 -0.68 -348.26 -179.46 -3.66 -1.49 327.22 -161.92 -2.38 -4.32 -409.94zm-6929.38 -21.98c143.8,-49.92 462,-33.53 638,-26.82l14.29 44.1 -9.35 412.85 -121.62 3.6 -4.35 -325.59 -188 4.63 -0.02 278.77c-17.85,119.92 5.01,5.03 -23.72,68.63l-303.07 21.98c-0.34,-81.39 -0.01,-163.03 0.14,-244.45 0.26,-144.99 20.16,-130.32 -64.35,-213.2l62.05 -24.5zm-2260.42 -452.58l0.11 -972.62 354.72 -1.32c32.14,41.24 19.63,-10.65 32.51,82.12l-11.07 1188.75c-58.77,46.15 -147.2,73.94 -200.75,127.69 -89.68,90.04 -10.36,126.38 -173.71,140.22l-1.81 -564.84zm11789.7 -964.66l359.25 -5.98 -1.17 945.14 -26.42 581.07c-159.04,18.86 -74.24,-2.48 -180.56,-118 -66.62,-72.37 -104.34,-74.24 -181.07,-129.53l-17.41 -969.08c3.68,-272.14 -34.73,-267.45 47.38,-303.62zm-2524.06 1113.48c31.44,-7.14 43.12,-4.17 74.76,-4.8l383.78 3.5c164.22,-2.54 372.2,-50.53 412.51,111.47 -156.42,5.43 -331.76,0.53 -489.01,-4.92 -410.35,-14.24 -210.99,40.35 -463.44,31.78l24.17 -109.33c24.31,-15.19 -23.9,-9.24 57.23,-27.7zm-6783.96 -3.89c402.18,12.96 428.82,-46.21 435.5,139.23 -175.7,19.85 -143.94,-21.05 -257.66,-32.34l-633.62 -1.19c78.56,-129.33 280.56,-111.33 455.78,-105.7zm5778.45 -281.74l315.38 -4.96 4.54 382.94 -336.81 -5.89 16.89 -372.09zm-4704.33 -8.94l316.01 11.77 7.44 377.49 -330.31 -6.38 6.86 -382.88zm4484.44 364.96l-0.97 602.23 -200.86 -9.52c-33.97,-144.17 -18.47,-531.52 -7.7,-692.53l-2.5 -311.98 210.64 2.09 1.39 409.71zm1122.79 -646.58l83.85 -6.1c87.72,182.88 175.56,233.36 276.53,358.94l-417.82 37.4c0.64,-72 3.59,-144.52 2.14,-216.48 -0.23,-11.81 -3.47,-98.56 -2.61,-102.52 24.58,-112.29 -21.02,-44.76 57.91,-71.24zm-6530.06 325.15c35.07,-85.89 197.91,-185.58 246.64,-336.61l70.63 9.25 66.63 23.61 -2.63 352.76 -438.8 2.87c20.45,-79.76 -6.87,-20.98 57.53,-51.88zm4821.43 -583.37l155.77 7.67c123.26,-67.74 876.2,-25.31 1090.93,-21.11l-4.07 240.87 -1284.2 -7.9c-1.2,-25.51 -9.32,-101.48 -8.09,-119.75 9.56,-141.31 -17.05,-70.93 49.66,-99.78zm-4009.98 171.42l9.02 -146.99c61.43,-68.84 118.06,-41.86 303.33,-42.31l964.27 8.55 -1.48 230.05 -988.29 1.3c-253.2,-0.37 -273.64,33.26 -286.85,-50.6zm2537.1 -531.12c223.21,-108.47 389.27,209.11 165.39,326.95 -130.43,68.65 -326.13,-49.04 -262.44,-237.23 27.87,-82.36 52.67,-68.16 97.05,-89.72zm8075 409.88c-53.42,121.06 -173.06,251.4 -276.17,315.79l-98.75 -519.74c-34.58,-226.12 -26.82,-425.33 66.97,-617.89 75.58,-155.16 188.49,-319.62 361.92,-353.64 255.1,292.4 101.93,1063.44 -53.97,1175.48zm-15601.02 -161.64l-105.12 462.8c-106.96,-54.64 -207.72,-175.67 -256.02,-296.41 -202.49,-165.55 -301,-956.02 -75.49,-1182.88 164.17,39.64 315,230.12 383.18,387.47 81.99,189.23 83.1,413.5 53.45,629.02zm5879.45 -1041.73l3456.68 -0.78c42.81,43.81 31.92,-41.33 40.48,106.94 1.25,21.61 -6.66,87.86 -8.27,114.49 -113.14,35.28 -273.96,-9.29 -363.57,31.27l-25.77 188.51c-102.71,43.87 -2011.61,18.81 -2428.16,15.97 -53.03,-0.36 -274.8,24.83 -291.14,-21.5 -57.74,-36.13 -24.08,-37.2 -41.28,-203.13l-370.95 -7.5c-10.51,-186.96 -31.62,-179.42 31.98,-224.27zm5578.12 332.92c79.25,112.41 78.43,184.8 254.69,246.22l-10.14 428.5c-89.08,-48.09 -183.44,-119.62 -262.52,-179.5 -126.7,-95.96 -61.99,-175.28 -196.42,-238.88 -243.45,76.55 -15.84,350.09 65.99,420.78 117.24,101.27 248.92,181.24 377.38,295.19l1.17 508.58c-388.54,-81.01 -763.46,-456.85 -851.5,-857.14 -196.23,-822.21 456.59,-1547.86 1296.26,-1333.69 637.55,162.62 1150.27,899.67 847.54,1720.02 -75.98,369.25 -516.54,738 -947.08,780.87 1.34,-89.67 -8.96,-382.7 18.7,-446.04 51.88,-118.84 536.24,-349.56 567.92,-728.68 10.65,-127.45 31.53,-351.66 -101.9,-359.82 -241.72,-14.75 83.95,255.49 -283.55,584.63 -86.78,77.71 -118.96,151.32 -220.19,207.81 6.51,-977.84 -49.74,-682.45 158.97,-880.66 45.03,-42.77 68.87,-112.52 116.85,-170.73 -3.37,-157.48 14.48,-226.27 -153.99,-230.21 -107.84,187.17 -70.32,324.23 -362.81,283.62 -91.96,-46.93 -121.5,-212.17 -172.73,-272 -140.17,13.56 -150.67,66.84 -142.64,221.13zm-8539.73 9.39c160.3,154.4 -49.16,35.97 290.88,274.34l0.41 766.31c-708.06,-497.46 -182.27,-832.71 -560.05,-788.72 -123.61,197.91 -33.65,552.66 88.98,672.12l454.61 411.24 -6.59 440.06c-453.74,-46.12 -810.11,-373.66 -951.63,-778.7 -70.23,-452.79 -131.53,-693.76 94.72,-1118.02 371.14,-696.02 1275.02,-842.86 1786.49,-331.44 249.89,249.88 343.34,549.55 295.58,1009.5 -95.68,424.03 -430.44,796.46 -874.72,928.53l11.53 -522.29c88.58,-92.08 243.21,-207.49 347.78,-283.41 117.76,-85.47 226.99,-208.61 163.87,-420.35l-135.22 -6.93c-88.64,217.78 -75.85,214.42 -400.38,427.99 -4.28,-533.8 -42.45,-356.34 135.65,-542.7 52.96,-55.4 65.89,-88.84 108.06,-148.67 3.06,-159.46 10.5,-197.53 -149.65,-226.31 -82.25,107.43 -51.69,174.69 -170.73,278.9 -299.85,44.15 -258.7,-96.72 -364.82,-277.04 -194.03,-6.51 -136.49,69.57 -164.77,235.59zm11616.01 -268.69c57.6,58.25 82.86,134.91 105.72,216.67 -268.85,44.21 -886.42,210.94 -1130.16,-248.04 -62.82,-55.79 -91.22,-179.13 -74.5,-292.6 419.7,-182.78 960.46,91.05 1098.94,323.97zm-12815.32 -17.26c-129.51,160.39 -271.54,246.51 -490.79,288.19 -228.36,43.39 -462,10.5 -657.99,-68.98 13.38,-29.44 27.47,-63.41 42.88,-88.94 33.71,-55.84 24.6,-40 58.72,-70.24 45.91,-238.61 606.54,-529.38 1129.92,-361.94 8.94,126 -23.61,208.81 -82.74,301.91zm6560.82 -978.4l167.86 8.7 -0.27 613.64 -169.99 3.08 2.4 -625.42zm-375.47 621.49c-9.63,-153.7 -35.51,-490.22 11.82,-623.9l157.75 0.59 4.27 624.11 -173.84 -0.8zm-382.23 -622.9l168.24 12.31 0.05 614.15 -167.77 -1.45 -3.23 -359.94 2.71 -265.07zm-371.79 -3.5l161.58 1.81 1.02 623.26 -175.32 0.15 12.72 -625.22zm-374.68 7.05l148.82 -6.28c37.76,133.22 20.46,476.32 15.12,630.68l-171.37 -5.85 7.43 -618.55zm8146.68 1113.02c-77.78,-61.78 -135.95,-177.84 -194.74,-280.12 -61.9,-107.69 -99.61,-205.45 -150.49,-324.07l135.3 -71.39 209.93 675.58zm-14632.41 30.83c5.77,-176.04 163.37,-474.8 206.17,-695.66l158.71 68.35c-45.5,95.87 -110.55,237.42 -166.3,338.53 -71.76,130.13 -123.8,191.64 -198.58,288.78zm15048.29 -447.62l-192.77 223.81c-88.41,-60.37 -140.88,-217.79 -187.19,-341.52 -31.51,-198.29 -59.91,-366.92 13.66,-567.29 59.29,-161.44 161.88,-305.62 306.22,-358.99 222.57,277.87 166.01,682.22 60.08,1043.99zm-15100.82 -57.01l-138.01 282.44c-97.85,-42.94 -158.43,-140.95 -205.2,-235.82 -138.28,-248.11 -155.44,-838.28 52.19,-1030.93 302.22,122.05 428.2,583.48 291.02,984.31zm3938.96 -530.71c142.41,-115.24 259.41,-18.69 389.28,-124.22 110.41,-89.7 91.55,-215.16 175.07,-297.38 95.03,89.81 71.01,229.4 189.03,310.38 115.9,79.53 240,2.04 387,111.22 -70.92,178.4 -223.71,52.14 -374.98,149.09 -113.96,73.03 -105.18,257.75 -201.05,323.43 -90.91,-103.65 -65.51,-239.83 -201.2,-322.54 -157.6,-96.05 -308.53,20.03 -363.15,-149.98zm5719.59 -27.24c148.82,-91.76 311.02,-28.78 409.64,-146.33 84.98,-101.33 86.77,-215.48 124.46,-309.63 20.74,-51.82 26.76,-50.67 50.3,-76.4 59.12,108.02 77.81,304.38 161.29,395.68 135.6,148.29 304.92,18.07 402.47,163.92 -88.26,171.41 -290.43,30.98 -401.95,163.12 -77.85,92.27 -88.95,271.76 -163.54,380.01 -95.16,-93.53 -74.66,-289.51 -196.41,-396.66 -140.99,-124.09 -332.38,22.37 -386.26,-173.71zm-6888.74 -256.23c68.15,-76.19 149.81,-36.37 230.05,21.4l-0.95 117.62c-75.98,54.36 -53.51,57.52 -160.55,66.53 -56.91,-65.2 -85.07,-92.44 -68.55,-205.55zm11235.55 232.92c72.62,56.55 72.93,60.63 116.62,157.36 -408.42,74.91 -876.16,172.97 -1073.46,-167.23 -82.14,-56.02 -113.67,-107.69 -169.09,-194.61 136.34,-101.5 473.42,-138.74 674.2,-97.7 190.63,38.96 414.56,181.83 451.73,302.18zm-12301 -2.88c-80.35,138.38 -299.67,223.34 -463.85,233.37 -246.94,15.08 -399.58,-33.29 -621.43,-73.13 28.46,-49.6 39.76,-64.24 67.65,-97.66l66.98 -62.56c147.39,-312.01 765.11,-411.58 1118.52,-193.86l-167.87 193.84zm4719.65 -504.47l1905.78 -5.18 -9.28 182.91 -1893.54 -14.96 -2.96 -162.77zm5153.62 -353.85l89.07 223.2c110.23,67.45 183.9,25.6 236.79,127.5 -99.42,91.07 -159.04,23.36 -235.71,101.2 -92.14,93.54 6.63,140.27 -125.97,214.39 -61.32,-73.04 -61.47,-170.24 -118.67,-222.73 -53.58,-49.2 -118.7,-36.48 -173.9,-58.1 -48.42,-18.97 -15.67,-7.7 -43.57,-34.76 24.14,-64 -2.53,-56.76 98.54,-83.48 40.35,-10.67 81.58,-16.19 125.39,-27.59 46.38,-90.21 54.84,-200.14 148.03,-239.63zm-10990.97 486.02c-70.6,132.96 -125.9,260.12 -222.38,351.58l-120.68 -265.55c-126.34,-337.77 -86.73,-963.68 179.42,-1096.26 310.23,153.39 238.43,676.87 163.64,1010.23zm13924.36 94.34c-44.68,110.21 -67.54,184.76 -147.79,258.14l-176.81 -344.17c-137.91,-298.33 -129.38,-894.23 135.08,-1014.24 261.76,122.02 327.65,776.65 189.52,1100.27zm-7884.42 -507.02c45.53,-274.41 394.57,-479.42 758.48,-473.3 184.82,3.11 355.42,52.82 478.63,143.79 83.37,61.54 240.36,217.08 248.73,326.26 25.99,25.79 31.38,-26.03 50.57,93.76 -96.19,30.74 -1445.51,29.47 -1588.44,6.36 13.65,-93.74 -0.42,-49.89 52.03,-96.87zm-3208.59 -142.42c57.34,56.16 40.83,-2.06 102.73,88.26 -45.74,177.4 -119.58,26.11 -184.54,209.89l-38.05 -48.88c-3.74,-4.38 -7.89,-10.9 -11.89,-15.16 -19.71,-20.94 -26.86,-26.85 -58.21,-45.03 -80.68,-46.76 -49.01,-4.74 -108.97,-75.32 44.84,-166.18 45.03,0.16 164.62,-173.12l46.53 -61.45c54.63,58.15 47.67,81.55 87.78,120.81zm9014.89 35.67c255.89,-44.13 417.28,-130.74 722.3,-54.57 188.37,47.04 389.06,201.52 449.11,337.64 -175.63,12.86 -1065.49,226.45 -1171.41,-283.07zm-11280.75 292.65c164.23,-447.97 966.32,-432.1 1172.67,-265.56 -280.14,491.44 -815.25,273.38 -1172.67,265.56zm2867.95 -553.41c128.74,-102.74 265.94,-50.8 231.4,107.75 -24.31,111.66 -256.99,153.87 -231.4,-107.75zm6633.43 176.67c-108.16,-96.62 -119.57,-248.88 97.55,-241.38 106.47,106.67 107.58,246.92 -97.55,241.38zm1432.87 -444.67c160.22,-93.04 394.98,-160.67 628.3,-130.3 189.32,24.64 387.81,151.51 462.14,309.67 -459.46,-13.6 -769.09,208.39 -1090.44,-179.37zm-10493.89 176.01c172.89,-404.91 661.14,-334.64 1074.67,-186.8 -57.3,131.44 -241.52,231.26 -458.32,243.48 -211.43,11.93 -410.79,-43.09 -616.35,-56.68zm5564.06 -376.38c-58.14,-377.79 518.42,-354.95 418.57,42.65 -122.67,191.75 -379.59,152.1 -418.57,-42.65zm6090.42 -185.1c-3.26,-221.31 -26.14,-505.98 130.95,-630.95 168.01,9.41 300.52,265.54 362.93,444.46 78.44,224.96 54.47,452.83 48.99,701.25l-64.67 320.06c-184.76,-196.76 -427.94,-431.13 -478.2,-834.82zm-12258.43 584.43c-39.8,-247.24 -53.07,-507.5 17,-743.25 60.56,-203.82 186.11,-411.98 335.52,-480.62 194.69,79.5 177.05,396.19 177.41,625.8 -33.94,377.67 -269.98,647.47 -495.45,850.57l-34.48 -252.5zm3518.35 -677.37c21.19,-26.81 -40.71,-46 148.43,-52.61 178.88,-6.25 412.83,44.18 455.64,-56.24 32.71,-312.15 533.43,-528.27 864.11,-149.41 85.52,97.96 84.6,187.49 134.85,318.66 113.05,15.59 196.63,5.72 307.13,9.19 127.5,4 160.03,21 148.85,153.52l-64.72 20.97c-27.36,13.66 28.67,8.86 -59.74,21.94 -14.29,2.1 -59.2,0.75 -75.41,0.34 -200.72,-5.2 -227.92,-22.14 -459.59,13.86 55.29,139.31 8.21,111.67 172.51,147.12 157.54,34 162.31,54.31 179.61,113.54 -244.03,17.76 -1410.69,55.16 -1570.24,-5.88l-26.06 -153.26 436.54 -15.08 2.86 -207.02c-100.46,-0.47 -556.04,44.97 -584.7,-32.71 -40.22,-16.6 -40.93,61.93 -51.44,-61.48 -6.89,-80.81 40.97,-65.13 41.37,-65.45zm4282.45 256.51c-146.85,15.23 -515.93,32.62 -617.67,-38.01l2.84 -102.3c115.6,-84.33 290.25,-32.42 460.07,-55 49.75,-123.48 67.94,-413.21 412.39,-501.81 273.31,-70.28 573.78,84.49 570.76,305.85l62.42 87.41c102.37,1.44 203.56,1.38 306.03,-1.05 91.41,-2.16 212.94,-25.86 250.21,45.57l54.2 13.75c2.13,80.67 27.52,67.92 -27.79,105.41 -58.56,73.21 -107.99,46.72 -302.13,43.14 -103.97,-1.9 -207.23,-0.55 -312.06,-7.38l-6.61 214.12 423.19 27.65c-1.82,212.14 -103.9,165.21 -308.53,160.56 -395.75,-8.99 -963.63,25.21 -1320.44,-13.29 22.67,-97.79 105.87,-99.24 199.85,-117.26 165.26,-31.71 120.13,-2.11 153.27,-167.36zm3697.59 -306.08c82.8,37.46 48.69,24.55 111.38,74.7 -42.36,49.51 -2.55,28.95 -71.27,60.72l-525.42 114.05c-157.74,6.89 -314.85,-16.92 -453.95,-87.38l-107.32 -87.99c58.77,-162.86 248.98,-268.4 483.67,-274.9 264.4,-7.32 403.53,92.07 562.91,200.8zm-10229.39 2.51c151.05,-110.23 304.53,-218.93 563.42,-201.7 208.82,13.9 428.02,105.92 477.49,263.07 -32.28,71.61 -2.97,55.39 -99.34,100.12 -44.2,20.52 -81.22,32.27 -132.14,47.38 -107.44,31.87 -207.61,44.25 -324.29,35.6 -208.21,-15.44 -398.09,-99.66 -592.9,-120.5 22.94,-46.57 19.05,-48.18 43.72,-77.93 61.1,-73.68 -4.72,-7.1 64.04,-46.04zm7563.38 -895.5c-44.14,-158.65 -19.17,-236.39 167.46,-214.51 107.42,156.45 43.85,272.85 -167.46,214.51zm-4837.14 18.89c-147.77,-360.11 407.11,-190.27 130.25,24.18l-130.25 -24.18zm-2620.35 304.82c-64.83,189.23 -357.28,430.19 -537.82,539.65 -39.79,-68.09 -30.63,-100.15 -53.07,-182.3 -22.69,-310.63 -77.25,-546.14 98.4,-800.32 99.73,-144.31 319.67,-380.36 586.77,-346.95 86.89,177.46 8.04,652.97 -94.28,789.92zm10625.06 327.14l-41.55 212.01c-119.36,-45.36 -334.4,-244.48 -404.66,-320.62 -91.38,-99.06 -197.47,-247.19 -244.8,-446.35 -22.57,-173.24 -65.37,-391.63 -16.69,-564.27 278.29,-23.72 499.5,209.15 600.22,366.85 143.76,225.11 174.22,468.91 107.48,752.38zm-973.67 -931.97c69.23,65.48 38.47,310.11 30.99,418.81 -160.43,-50.97 -326.83,-144.89 -393.36,-266.51 -156.65,-81.51 -155.95,-211.55 -354.99,-229.85 -64.52,372.06 398.61,618.23 482.72,754.39l-95.87 66.41c-28.16,13.77 -56.32,25.08 -88.03,39.19 -289.87,128.94 -238.52,115.88 -488.03,271.2 -387.67,-227.71 -623.38,-1031.31 -249.13,-1517.95 126.46,-164.42 431.85,-384.24 745.09,-222.11 184.95,95.71 436.09,381.61 410.61,686.42zm-8905.72 161.03c-63.14,119.71 -279.3,223.51 -409.82,255.53 0.29,-86.54 -32.33,-304.06 29.4,-345.25 -74.18,-539.81 605.07,-1167.11 1140.31,-571.12 171.69,191.19 272.72,532.01 204.22,874.01 -67.05,334.81 -215.82,480.56 -412.5,682.82 -112.25,-40.82 -214.6,-141.12 -352.1,-205.46 -112.69,-52.71 -279.84,-89.24 -353.04,-174.72 111.89,-144.49 551.96,-369.87 498.67,-762.17 -231.89,37.13 -211.01,179.25 -345.14,246.36zm1766.7 -1116.3c64.52,-67.08 -0.6,-30.59 136.08,-56.55 174.6,-33.18 114.08,-114.19 197.78,-248.39 85.91,37.34 36.48,-25.81 81.03,103.79 81.92,238.23 136.34,90.98 282.5,201.15 -56.65,128.35 -125.29,20.21 -230.12,125.63 -86.67,87.15 -28.86,131.38 -127.87,197.93 -122.41,-134.61 21.63,-204.52 -237.26,-257.55 -151.47,-31.04 -61.98,11.56 -102.14,-66.01zm3095.73 -103.51c-113.81,-114.85 -96.9,-247.83 92.92,-238.83 67.53,47.93 49.82,20.71 94.76,118.79l-85.69 124.97 -101.99 -4.93zm1273.77 -330.03c31.93,-57.1 3.74,-67.1 206.46,-97.84 379.8,-57.62 200.49,-296.82 381.4,-487.58 88.34,117.13 74.8,307.53 170.76,414.18 132.09,146.81 304.17,15.92 394.19,171.24 -93.05,150.25 -283.75,37.64 -395.73,170.1 -83.28,98.48 -88.73,288.05 -169.22,389.4l-56.84 -96.03c-214.66,-635.67 -318.14,-211.33 -531.02,-463.47zm-4922.75 26.12c-235.85,159.61 -338.56,-153.92 -99.78,-196.11 95.34,42.54 119.07,68.03 99.78,196.11zm1142.76 -561.66c92.02,-148.83 238.64,-119.33 231.52,76.51 -25.92,33.99 -27.77,37.66 -53.17,66.23 -141.46,21.47 -174.13,-2.84 -178.35,-142.74zm3256.84 1587.12c-217.57,892.17 -1465.36,1214.06 -2144.6,622.25 -37.19,-32.4 -35.7,-47.05 -69.96,-82.39 -232.14,-239.53 -394.23,-538.87 -387.16,-902.89 2.05,-105.54 0.98,-211.6 45.41,-285.47 -22.28,-323.97 291.23,-661.25 436.81,-777.71 275.73,-220.55 502,-289.1 938.74,-303.64 -69.05,100.27 -64.68,67.65 -137.1,136.81 -807.06,770.77 219.69,2099.15 1338.93,1484.41l-21.07 108.63zm-156.65 -1713.79c12.36,-91.42 27.59,-99.29 73.08,-146.4 145.65,-11.48 176.55,35.72 172.8,180.67 -124.99,98.44 -175.76,90.63 -245.88,-34.27zm-2112.88 12245.28l-47.85 140.68c-227.66,-274.18 -141.63,-184.75 -385.5,-386.36 -383.63,-317.14 -698.05,-425.35 -777.92,-509.81 -93.22,-1.35 -442.88,-137.94 -608.13,-170.42 -1411.54,-277.48 -2659.36,141.74 -3885.3,761.64 -149.91,75.81 -395.94,187.48 -518.93,275.15 -59.89,-80.73 -138.82,-177.52 -165.45,-279.15 88.84,-44.1 216.55,-133.18 309.03,-193.77 680.46,-445.85 1831.73,-889.23 2648.51,-998.27 864.65,-115.44 1853.3,-10.92 2609.92,406.33 345.08,190.28 454.81,315.31 638.86,423.5 20.32,-42.93 4.97,-14.81 29.09,-51.05 3.63,-5.44 18.19,-24.42 21.82,-29.77l20.3 -31.51c-208.73,-289.86 -867.3,-638.67 -1367.61,-775.31 -630.72,-172.27 -1264.31,-207.04 -1941.49,-129.97 -853.65,97.16 -1679.12,423.57 -2426,781.24 -159.8,76.53 -616.01,325.02 -718.5,341.91l-145.32 -216.13c66.97,-89.54 546.11,-336.4 704.72,-411.37l793.27 -355.43 -33.03 -144.08c-425.51,197.1 -352.72,126.88 -806.95,249.21 -149.98,40.4 -272.25,73.96 -405.85,128.15 -140.1,56.86 -256.96,125.89 -387.35,173.32 -56.62,-53.03 -93.04,-120.07 -104.16,-202.58 129.36,-85.19 409.54,-199.1 558.13,-224.01 -22.23,-50.87 -29.43,-59.12 -50.57,-113.31l-93.07 -138.88c1522.23,-862.55 4042.82,-1703.4 5868.11,-1137.8 315.49,97.76 482.35,201.15 758.03,324.86 65.24,-78.87 62.22,-123.43 165.19,-202.84 52.5,-40.5 151.02,-102.28 218.38,-138.72 113.51,-61.4 415.41,-166.27 477,-230.94 -119.46,-175.8 -724.54,-104.57 -956.69,-129.01 -58.54,-6.15 -91.75,-11.09 -158.33,-11.94 -241.04,-3.13 -146.09,-11.39 -175.89,-37.54 397.02,-172.54 2424.35,-210.71 1643.73,398.35 -542.27,423.1 -784.01,964.11 -553.84,1696.11 92.65,294.68 254.09,586.93 381.22,869.7 425.07,945.59 323.33,1859.19 316.73,2875.74 -0.68,103.2 -26.55,526.05 19.6,618.82 155.35,-22.38 20.06,41.69 169.42,-245.81 61.9,-119.16 99.69,-163.03 173.8,-258.74 725.48,-936.98 2418.55,-601.56 3403.48,-288.49 216.52,68.83 427.5,146.4 628.02,236.9 602.23,271.8 537.64,381.8 867.75,104.75l1246.84 -1251.93 296.98 -391.8c456.49,-648.42 969.85,-1477.28 1264.66,-2356.17 838.4,-2499.59 670.65,-5117.66 -602.5,-7415.79 -1589.86,-2869.85 -4644.24,-4706.21 -7984,-4712.76 -2219.41,-4.37 -4025,796.01 -5432.95,1806.15 -450.78,323.42 -832.38,674.74 -1195.2,1049.09 -1557.62,1607.13 -2467.92,3825.58 -2487.56,6143.79 -4.92,580.85 38.71,1130.46 135.05,1684.51 326.4,1877.58 1212.34,3449.02 2468.81,4775.65l355.93 334.58c52.73,54.89 50.69,69.44 110.98,116.42 788.98,614.92 147.01,420.09 1740.45,-122.92 422.24,-143.87 949.36,-260.73 1423.07,-302.7 698.61,-61.9 1556.49,10.47 1984.41,583.14 358.55,479.84 164.74,527.05 361.49,504.93 50.46,-124.41 36.61,-2462.69 -25.69,-2854.77 -50.18,-315.64 -139.31,-510.56 -222.15,-773.53 -74.1,83.96 -114.18,308.36 -149,420.76z"/>
   <path class="fil0" d="M14030.74 21592.93c102.81,109.7 303.23,488.05 395.39,650.12 63.24,111.21 125.1,220.48 195.49,339.98 81.41,138.23 105.53,246.48 287.19,249.78 182.42,3.29 232.24,-117.43 302.52,-234.29 68.24,-113.45 128.87,-223.32 196.56,-339.47 64.65,-110.92 340.5,-609.75 403.92,-638.88 39.96,650.65 -62.53,1461.67 16.45,2086.41 126.51,115.31 168.55,113.65 382.31,99.52 196.52,-13 228.45,-89.32 226.94,-285.56l-4.25 -3064.24c-80.74,-183.05 -624.57,-137.14 -688.42,-53.26 -11.92,15.69 -23.49,32.58 -32.45,46.2l-157.2 275.07c-76.86,127.97 -138.5,250.39 -211.11,374.79 -112.42,192.57 -296.18,579.39 -418.13,728.48l-413.99 -715.83c-69.26,-129.68 -380.51,-694.72 -437.65,-736.94 -69.72,-51.53 -417.13,-52.79 -527.77,-27.04 -176.18,41.02 -145.41,266.91 -145.94,443.62 -0.94,303.11 -23.72,2781.06 17.45,2895.63 47.14,131.17 292.62,151.06 463.42,104.49 180.61,-49.25 138.72,-239.06 138.43,-449.94 -0.27,-195.5 2.84,-391.04 3.29,-586.55 0.81,-363.19 -21.01,-808.87 7.55,-1162.09z"/>
   <path class="fil0" d="M3683 20940.8c512.77,-17.73 1223.12,-121.59 1219.66,539.21 -3.45,655.25 -667.8,533.5 -1220.36,532.48l0.7 -1071.69zm-657.84 -490.56l-7.25 2916.83c0,335.24 -26.42,447.08 338.43,439.97 393.68,-7.67 319.53,-135.66 322.08,-669.49l-0.04 -523.36 631.06 4.09c32.8,113.05 532.57,1122.64 653.46,1175.88 27.58,12.13 491.75,49.72 556.91,-71.74 64.4,-120.11 -469.25,-991.48 -570.99,-1222.41 91.81,-121.87 368.39,-157.93 529.68,-607.45 108.43,-302.28 84.36,-702.66 -56.56,-973.58 -363.08,-697.98 -1175.78,-580.11 -2116.64,-573.88 -196.47,0.96 -176.25,0.39 -280.14,105.14z"/>
   <path class="fil0" d="M12261.13 22704.02c-233.31,898.46 -1503.03,545.02 -1311.28,-287.91 204.08,-886.43 1516.51,-502.3 1311.28,287.91zm120.06 -2116.64l-1.16 1002.11c-141.91,-60.25 -244.8,-234.5 -603.53,-296.88 -263.88,-45.88 -559.01,-0.62 -768.1,111.53 -1302.34,698.53 -629.62,2677.28 745.79,2432.17 131.31,-23.41 239.99,-63.44 345.87,-115.65 96.01,-47.34 188.89,-129.12 274.41,-166.13 17.12,213.54 93.1,253.54 315.48,253.84 375.99,0.5 298.57,-205.17 299.23,-696.32l3.11 -2346.17c-0.29,-217.47 33.58,-407.36 -198.45,-441.31 -272.16,-39.82 -409.49,9.09 -412.65,262.81z"/>
   <path class="fil0" d="M6289.3 22290.49c5.73,-225.11 236.46,-410.85 484.1,-414.85 254.29,-4.07 456.09,179.96 463.25,412.72l-947.35 2.13zm1394.55 1204.09c-41.59,-115.73 -265.42,-307.83 -400.27,-352.47 -185.04,93.58 -379.96,172.74 -629.1,89.29 -156.65,-52.45 -340.45,-234.75 -360.6,-416.32 431.67,-2.62 864.1,5.23 1296.01,0.77 251.15,-2.59 296.47,-85.9 301.91,-341.04 21.54,-1013.68 -1035,-1545.39 -1810.38,-948.41 -800.6,616.4 -534.78,2226.16 665.53,2325.21 343.16,28.34 746.1,-71.84 936.9,-357.03z"/>
   <path class="fil0" d="M8640.08 22959.04c131.03,-172.88 501.47,-170.2 718.65,-136.82 2.23,320.32 18.44,368.09 -286.44,448.39 -261.8,68.97 -482.42,-22.8 -432.21,-311.57zm740.52 -684.92c-335.05,-2 -796.17,-29.75 -1056,118.15 -222.15,126.48 -409.88,454.23 -336.73,834.9 60.58,315.28 268.44,514.43 577.6,594.38 411.48,106.42 669.03,-77.87 911.25,-233.87l27.81 29.57c50.62,69.1 78.46,154.57 219.15,192.43 276.78,74.5 532.13,-156.62 388.89,-441.18 -96.26,-191.24 -113.35,-41.15 -105.48,-358.44 16.04,-645.51 82.87,-1200.12 -350.81,-1506.04 -477.52,-336.82 -1273.11,-296.7 -1355.59,29.05 -39.19,154.77 29.82,293.87 121.41,339.34 202.68,100.55 909.33,-199.81 958.5,401.71z"/>
   <path class="fil0" d="M17039.68 21326.66c-126.28,29.63 -177.7,58.13 -184.25,204.2l1.72 1964.68c2.81,304.72 158.67,376.84 471.63,301.85 233.73,-56 163.37,-345.9 164.02,-608.83l4.98 -1581.36c-0.23,-297.84 -209.92,-338.78 -458.1,-280.54z"/>
   <path class="fil1" d="M11695.26 17835.66c-86.7,40.21 -288.47,180.79 -306.02,274.06l0.06 32.35c83.23,-80.45 162.68,-77.13 195.51,-136.94l95.86 43.94c-4.44,-4.46 -15.81,-8.59 -18.23,1.32 -6.93,28.34 -19.54,-27.22 -45.91,60.47 105.84,13.02 37.86,-33.56 58.96,65.25 1268.38,-650 2154.82,-809.7 3590.65,-369.25 180.85,55.47 384.96,122.5 548.8,191.45 165.55,69.68 367.39,188.14 521.76,226.61 27.27,-25.3 44.31,-41.13 72.17,-65.66 80.59,-71 22.11,37.59 66.45,-92.3 -326.63,-88.54 -227.59,-95.03 -459.8,-191.15 -0.77,-0.32 -64.53,-22.89 -64.55,-22.89l-49.36 33.35c-19.05,-92.03 18.47,-51.94 -87.11,-88.55 -299.4,-103.83 -566.42,-224.64 -863.63,-306.51l-287.67 -60.44c-338.56,-90.88 -424.13,-111.93 -828.74,-146.57 -373.52,-31.97 -880.71,47.03 -1208.17,153.69 -452.83,147.49 -748.81,397.99 -930.9,456.41 -28.03,-32.9 -82.39,56.47 -0.13,-58.64z"/>
   <path class="fil1" d="M4337.67 17956.55l-9.55 79.53c-75.62,-20.07 -58.93,-13.97 -71.56,5.54 -65.94,101.67 35.69,14.69 -124.46,65.69l-64.74 24.77c32.06,68.71 8.26,38.19 66.01,96.86 239.16,-52.12 1048.02,-599.49 2359.67,-660.42 855.77,-39.75 1812.41,258.1 2382.22,648.4l101.95 -177.27 100.41 35.25 -259.56 -233.17c-18.15,57.25 9.24,43.13 -22.86,67.06 -159.17,-85.35 -314.88,-199.32 -503.08,-295.96 -171.73,-88.18 -338.83,-149.95 -555.12,-211.38 -396.16,-112.49 -935.26,-158.37 -1362.72,-91.29l-1227.6 303.29c-31.3,10.9 -83.19,37.08 -115.07,49.63 -54.83,21.6 3.31,-4.42 -55.29,14.11 -0.77,0.24 -53.75,21.25 -67.59,26.66l-297 112.64c-4.22,3.1 -9.34,8.96 -13.28,12.27 -3.97,3.36 -9.19,9.59 -12.92,12.96 -89.98,80.8 -30.06,24.03 -96.89,54.15l-63.2 37.3c-65.53,37.71 -56.71,36.31 -87.77,23.38z"/>
   <path class="fil1" d="M15599.87 11852.51c-91.76,-113.88 64.54,-464.93 -111.26,-717.91 -139.87,-201.31 -534.53,-218.73 -579.02,-294.71 -47.98,58.21 -71.82,127.96 -116.85,170.73 -208.71,198.21 -152.46,-97.18 -158.97,880.66 101.23,-56.49 133.41,-130.1 220.19,-207.81 367.5,-329.14 41.83,-599.38 283.55,-584.63 133.43,8.16 112.55,232.37 101.9,359.82 -31.68,379.12 -516.04,609.84 -567.92,728.68 -27.66,63.34 -17.36,356.37 -18.7,446.04 430.54,-42.87 871.1,-411.62 947.08,-780.87z"/>
   <path class="fil1" d="M4854.3 11848.47c141.52,405.04 497.89,732.58 951.63,778.7l6.59 -440.06 -454.61 -411.24c-122.63,-119.46 -212.59,-474.21 -88.98,-672.12 377.78,-43.99 -148.01,291.26 560.05,788.72l-0.41 -766.31c-340.04,-238.37 -130.58,-119.94 -290.88,-274.34l-13.74 32.59c-1000.78,188.88 -484.8,826.81 -669.65,964.06z"/>
   <path class="fil1" d="M13494.91 18342.17c1208.58,121.15 1892.01,554.83 2153.25,606.26 113.77,-99.96 152.07,-120.52 201.98,-222.67 -210.14,-192.48 -749.56,-360 -1066.4,-462.36 -383.22,-123.81 -879.24,-186.24 -1314.34,-176.98 -3.28,5.2 -31.2,65.88 -40,81.28l-101.12 53.01c-56.17,35.96 -19.59,-18.7 -49.82,47.15 58.3,-46.9 -21.66,-31.72 125.54,-30.17 3.83,4.5 9.85,5.61 11.52,13.5l79.39 90.98z"/>
   <path class="fil1" d="M6977.68 18336.1l49.51 -148.57c61.44,6.94 35.5,-9.76 114.01,57.06 -39.69,-117.37 -88.11,-107.93 -154.2,-53.62 -3.6,-5.94 -8.57,-22.04 -10.76,-17.83 -2.22,4.26 -8.96,-13.68 -11.96,-17.28l1.22 -70.7c-483.71,-4.53 -873.06,65.88 -1304.39,190.98 -257.71,74.74 -891.02,299.49 -1050.71,449.62 51.89,88.74 132.08,174.48 225.01,226.48 169.01,-54.52 328.48,-141.96 504.69,-206.97 174.59,-64.42 336.57,-120.5 515.62,-172.21 382.51,-110.48 710.71,-171.2 1121.96,-236.96z"/>
   <path class="fil1" d="M7031.09 11408.51c-55.66,-66.37 -17.32,-4.25 -43.81,-120.2 -54.58,-238.92 -331.16,-463.48 -599.62,-447.63 -42.17,59.83 -55.1,93.27 -108.06,148.67 -178.1,186.36 -139.93,8.9 -135.65,542.7 324.53,-213.57 311.74,-210.21 400.38,-427.99l135.22 6.93c63.12,211.74 -46.11,334.88 -163.87,420.35 -104.57,75.92 -259.2,191.33 -347.78,283.41l-11.53 522.29c444.28,-132.07 779.04,-504.5 874.72,-928.53z"/>
   <path class="fil1" d="M13456.07 11466.18c88.04,400.29 462.96,776.13 851.5,857.14l-1.17 -508.58c-128.46,-113.95 -260.14,-193.92 -377.38,-295.19 -81.83,-70.69 -309.44,-344.23 -65.99,-420.78 134.43,63.6 69.72,142.92 196.42,238.88 79.08,59.88 173.44,131.41 262.52,179.5l10.14 -428.5c-176.26,-61.42 -175.44,-133.81 -254.69,-246.22 -260.03,24.91 -300.5,61.88 -455.29,195.31 -70.24,60.55 -85.46,89.04 -112.89,189.11 -9.97,36.38 -24.78,227.47 -53.17,239.33z"/>
   <path class="fil1" d="M7967.75 7636.94c-42.81,100.42 -276.76,49.99 -455.64,56.24 -189.14,6.61 -127.24,25.8 -148.43,52.61 154.07,-51.08 343.24,-21.35 506.44,-15.56 396.97,14.08 366.89,-10.23 384.02,114.23l-144.3 50.86 -16.93 269.89 -103.26 -9.21 -1.47 -63.62c7.75,-124.5 27.16,-62.56 -12.15,-217.14l-602.28 -2.52c28.66,77.68 484.24,32.24 584.7,32.71l-2.86 207.02 -436.54 15.08 26.06 153.26c159.55,61.04 1326.21,23.64 1570.24,5.88 -17.3,-59.23 -22.07,-79.54 -179.61,-113.54 -164.3,-35.45 -117.22,-7.81 -172.51,-147.12 231.67,-36 258.87,-19.06 459.59,-13.86 16.21,0.41 61.12,1.76 75.41,-0.34 88.41,-13.08 32.38,-8.28 59.74,-21.94 -404.33,-27.14 -416.99,2.18 -595.29,-4.86 -31.55,-88.17 14.82,-117.32 47.99,-174.02 -29.43,-190.79 -147.61,-346.26 -353.17,-361.72 -290.66,-21.87 -285.73,147.96 -489.75,187.67z"/>
   <path class="fil1" d="M11646.13 8002.3c-33.14,165.25 11.99,135.65 -153.27,167.36 -93.98,18.02 -177.18,19.47 -199.85,117.26 356.81,38.5 924.69,4.3 1320.44,13.29 204.63,4.65 306.71,51.58 308.53,-160.56l-423.19 -27.65 6.61 -214.12c104.83,6.83 208.09,5.48 312.06,7.38 194.14,3.58 243.57,30.07 302.13,-43.14 -201.34,21.24 -452.18,-34.02 -634.9,25.51 -28.8,121.47 -19.57,251.31 -19.75,245.23 -0.1,-2.99 -2.8,12.31 -4.28,21.81l-122.41 2.86 3.51 -283.28 -160.84 -12.22 2.89 -89.29c196.85,-31.75 725.69,-68.3 909.37,-29.78 -37.27,-71.43 -158.8,-47.73 -250.21,-45.57 -102.47,2.43 -203.66,2.49 -306.03,1.05l-62.42 -87.41c-155.17,98.79 -165.24,-266.8 -566.7,-143.53 -366.39,112.51 -211.49,460.95 -207.69,501.82l-54 32.98z"/>
   <path class="fil0" d="M14541.13 14796.93l120.02 7.61c5.79,-91.13 15.04,-84.74 22.59,-170.28 -152.86,12.72 -333.6,-22.96 -493.77,-30.2 -173.94,-7.85 -352.55,-9.11 -526.46,-0.28 -317.51,16.1 -657.8,67.81 -953,138.86 -501.19,120.63 -1210.27,408.73 -1495.78,693.39l63.2 135.29c15.16,-8.32 24.06,-19.4 26.47,-14.59l137.71 -93.58c381.87,-240.63 811.19,-417.58 1250.42,-533.29 664.6,-175.09 1144.71,-173.07 1848.6,-132.93z"/>
   <path class="fil0" d="M5795.64 14638.74c-23.7,46.53 -13.28,-14.61 -20.51,56.85 -3.51,34.62 1.14,76.99 3.56,112.19l128.88 -10.94c742.93,7.7 1002.47,-94.74 1857.57,131.17 362.71,95.81 770.68,253.79 1090.76,439.56 101.1,58.67 232.62,155.18 318.99,192.48l60.94 -121.87c-127.51,-144.92 -450.13,-310.32 -671.54,-415.66 -255.93,-121.76 -510.02,-203.02 -794.5,-275.12 -1029.4,-260.92 -1312.12,-76.32 -1974.15,-108.66z"/>
   <path class="fil1" d="M11578.94 6184.88c-182.14,119 6.98,21.54 -275.71,314.75 -427.34,443.26 -1166.81,543.82 -1716.46,180.56 -412.14,-272.37 -538.38,-649.12 -564.14,-1143.81 -44.43,73.87 -43.36,179.93 -45.41,285.47 -7.07,364.02 155.02,663.36 387.16,902.89 34.26,35.34 32.77,49.99 69.96,82.39 679.24,591.81 1927.03,269.92 2144.6,-622.25z"/>
   <path class="fil1" d="M2405.68 13523.51c-141.74,17.54 -113.84,50.89 -227.16,96.48 -62.93,25.32 -185.87,46.22 -208.74,56.48l9.3 -1089.83c-72.45,32.91 -40.82,437.18 -40.86,528.72 -0.29,635.17 -31.46,953.56 121.1,1578.85l345.22 -159.75 1.14 -1010.95z"/>
   <path class="fil1" d="M9483.37 8859.71c-52.45,46.98 -38.38,3.13 -52.03,96.87 142.93,23.11 1492.25,24.38 1588.44,-6.36 -19.19,-119.79 -24.58,-67.97 -50.57,-93.76l-333.48 -215.22c-274.55,-115.73 -616.14,-103.02 -883,32.57 -278.75,141.63 -226.15,245.21 -269.36,185.9z"/>
   <path class="fil1" d="M18505.41 13684.09c-187.99,-17.49 -287.7,-106.62 -459.45,-172.83l-0.95 1016.7 353.5 186.35c75.68,-396.91 143.2,-588.63 106.9,-1030.22z"/>
   <path class="fil0" d="M17028.08 20328.25c-410.28,186.2 -171.25,864.6 299.55,637.62 404.41,-194.96 145.23,-839.48 -299.55,-637.62z"/>
   <path class="fil1" d="M8879.55 10944.41l-4.83 -195.89c447.05,14.75 915.83,-4.6 1367.05,-2.14 310.45,1.69 1150.55,-34.84 1382.85,15.05 89.61,-40.56 250.43,4.01 363.57,-31.27 1.61,-26.63 9.52,-92.88 8.27,-114.49 -8.56,-148.27 2.33,-63.13 -40.48,-106.94l-0.95 164.53c-278.59,2.69 -560.51,-18.4 -846.17,-25.24 -421.05,-10.07 -2285.69,-11.8 -2619.23,33.61l9.67 -172.12c-63.6,44.85 -42.49,37.31 -31.98,224.27l370.95 7.5c17.2,165.93 -16.46,167 41.28,203.13z"/>
   <path class="fil1" d="M17145.71 13140.99l-32.96 12.36 -10.87 269.88 25.15 202.29c-82,72.17 -28.77,-1.09 -74.59,86.07 -24.78,47.14 -3.63,28.15 -10.21,60.42l-239.62 -61.86 -17.98 -248.04 -13.08 -880.61 -133.88 -35.17 -1.02 1334.13c89.57,61.41 391.89,176.56 499.5,188.25l9.56 -927.72z"/>
   <path class="fil1" d="M17735.64 13349.11l-32.62 84.8c-80.63,-39.73 -70.61,-18.01 -144.05,-87.69 -69.74,-66.17 -52.45,-74.17 -157.93,-92.91l2.85 939.33c117.06,42.28 209.22,132.29 326.34,144.3l5.41 -987.83z"/>
   <path class="fil1" d="M3682.22 13043.61l12.08 585c-13.84,105.44 -3.45,123.53 -43.63,137.93 -101.51,36.36 -102.38,31.05 -155.57,-0.22l65.42 -31.26c-121.39,-11.17 -25.85,30.05 -144.16,-71.39 -5.69,-4.89 -11.79,-10.02 -17.17,-14.51l0.19 -86.83c1.36,-2.21 5.22,-9.35 8.51,-13.54l-16.63 -56.3c-47.6,70.58 -47.29,153.21 -49.79,251.32 9.66,-85.88 6.29,-300.89 -41.01,-362.71l7.72 701.53 509.5 -192.31 2.17 -1348.42 -120.79 8.31 -16.84 493.4z"/>
   <path class="fil1" d="M2718.35 13465.93l3.78 887.91 317.08 -154.14 11.07 -961.73c-85.58,102.8 -203.59,168.4 -331.93,227.96z"/>
   <path class="fil1" d="M3291.2 10625.9c-34.12,30.24 -25.01,14.4 -58.72,70.24 -15.41,25.53 -29.5,59.5 -42.88,88.94 195.99,79.48 429.63,112.37 657.99,68.98 219.25,-41.68 361.28,-127.8 490.79,-288.19 -210.05,-3.93 -387.74,-19.42 -600.64,0.02 -147.26,13.44 -332.07,51.33 -446.54,60.01z"/>
   <path class="fil1" d="M17153.7 10583.13c-39.69,71.83 21.82,17.03 -53.96,28.78l-177.2 -21.37c-321.21,-39.45 -708.42,-18.22 -793.28,-38.78 243.74,458.98 861.31,292.25 1130.16,248.04 -22.86,-81.76 -48.12,-158.42 -105.72,-216.67z"/>
   <path class="fil1" d="M16312.13 12322.79c-143.94,-41.59 -285.62,-203.63 -345.14,-311.49 -58.28,-105.63 -41.29,-499.69 -12.94,-627.67 -82.11,36.17 -43.7,31.48 -47.38,303.62l17.41 969.08c76.73,55.29 114.45,57.16 181.07,129.53 106.32,115.52 21.52,136.86 180.56,118l26.42 -581.07z"/>
   <path class="fil1" d="M4164.35 12348.29l1.81 564.84c163.35,-13.84 84.03,-50.18 173.71,-140.22 53.55,-53.75 141.98,-81.54 200.75,-127.69l11.07 -1188.75c-12.88,-92.77 -0.37,-40.88 -32.51,-82.12 -0.78,162.78 39.68,500.57 -33.73,629.61 -42.36,74.47 -212.43,271.41 -321.1,344.33z"/>
   <path class="fil2" d="M11077.7 12623.93c-29.92,-241.98 -24.17,-512.57 -22.76,-758.16 3.45,-596.46 -45.3,-484.66 258.03,-484.66l0 1292.49 0 204.59c-2.95,-209.27 -24.57,-157.56 -85.23,-191.46l-2.58 132.17c-245.44,-21.25 79.58,4.87 -142.35,42.49 71.39,88.56 65.71,46.35 2.03,74.93l-7.14 -312.39zm-33.16 508.15c95.79,20.54 213.33,24.14 304.87,-6.59l4.54 -1778.6 -306.91 -3.76c-57.32,239.96 -13.62,1466.54 -2.5,1788.95z"/>
   <path class="fil3" d="M9430.39 12710.51l-50.7 -84.95c-11.28,-37.32 -8.6,-51.71 -11.92,-88.79 -26.53,65.17 -30.52,47.34 -73.2,68.55 23.26,47.22 3.17,12.71 29.45,51.81 2.79,4.13 17.81,18.61 24.14,24.27 -82.83,-22.7 -22.02,-11.14 -106.54,-24.88 21.62,-44.13 30.36,-58 30.87,-120.65l-100.87 13.44 -25.66 491.56c42.12,-35.2 26.78,-100.59 24.93,-180.18 -8.87,-379.62 -86.22,-1167.62 -3.37,-1479.58l255.1 0c-35.78,-68.9 -108.27,-46.71 -287.13,-34.53 -63.04,249.87 -11.05,1447.43 -9.01,1790.43l293.84 -1.19 10.07 -425.31z"/>
   <path class="fil1" d="M17593.49 15308.37c-15.62,-13.63 -20.3,-40.93 -35.1,-56.57l32.87 -61.26c-132.09,-89.22 -1210.95,-587.2 -1372.21,-529.5l-16.55 86 694.06 282.59c213.39,81.14 467.57,241.94 696.93,278.74z"/>
   <path class="fil1" d="M2867.15 15175.2c21.14,54.19 28.34,62.44 50.57,113.31l1329.18 -541.04 -16.37 -117.21c-351.59,35.97 -1273.26,520.3 -1363.38,544.94z"/>
   <path class="fil1" d="M3610.48 9644.71l-66.98 62.56c-27.89,33.42 -39.19,48.06 -67.65,97.66 221.85,39.84 374.49,88.21 621.43,73.13 164.18,-10.03 383.5,-94.99 463.85,-233.37 -151.6,-13.66 -307.07,-21.85 -466.26,-15.6 -159.52,6.27 -324.07,38.45 -484.39,15.62z"/>
   <path class="fil1" d="M3845.33 8423.16l34.48 252.5c225.47,-203.1 461.51,-472.9 495.45,-850.57l-17.75 -199.99 -512.18 798.06z"/>
   <path class="fil1" d="M15905.29 9637.7c197.3,340.2 665.04,242.14 1073.46,167.23 -43.69,-96.73 -44,-100.81 -116.62,-157.36 -30.03,23.01 -370.51,-12.08 -448.05,-13.35 -138.65,-2.33 -398.05,26.72 -508.79,3.48z"/>
   <path class="fil1" d="M5457.44 13436.68c92.96,-3.51 276.98,-44.99 355.36,-91.82l1.43 -483.85 -367.44 -2.34 10.65 578.01z"/>
   <path class="fil2" d="M11618.75 11662.7c-66.71,28.85 -40.1,-41.53 -49.66,99.78 -1.23,18.27 6.89,94.24 8.09,119.75l1284.2 7.9 4.07 -240.87c-214.73,-4.2 -967.67,-46.63 -1090.93,21.11 182.49,48.51 832.12,16.66 1071.49,17.24l-15.05 128.68c-117.19,-67.54 -455.39,-30.93 -625.55,-29.23 -110.44,1.1 -221.5,3.66 -332.04,0.77 -285.69,-7.42 -200.16,-54.89 -263.2,8.73l8.58 -133.86z"/>
   <polygon class="fil1" points="14041.91,12881.89 13404,12884.3 13354.15,12822.85 13358.47,13232.79 13520.39,13235.17 13521.88,12907.95 13701.34,12911.61 13702.02,13259.87 14023.61,13282.44 "/>
   <path class="fil1" d="M7077.06 12818.15l-73.99 58.29 -541.44 -7.35c-38.33,-32.88 -16.79,-14.83 -36.86,-68.22l-62.05 24.5c84.51,82.88 64.61,68.21 64.35,213.2 -0.15,81.42 -0.48,163.06 -0.14,244.45l303.07 -21.98c28.73,-63.6 5.87,51.29 23.72,-68.63l0.02 -278.77 188 -4.63 4.35 325.59 121.62 -3.6 9.35 -412.85z"/>
   <path class="fil1" d="M16103.76 7838.73c50.26,403.69 293.44,638.06 478.2,834.82l64.67 -320.06c-78.67,-23.31 -39.18,7.72 -98.36,-64.03 -18.44,-22.35 -42.28,-53.95 -66.53,-87.25 -34.89,-47.95 -76.19,-106.77 -116.88,-162.86 -42.88,-59.08 -65.98,-101.78 -105.41,-173.23 -34.68,-62.89 -58.52,-127.53 -101.26,-176.09 -32.73,61.71 -3.84,82.22 -54.43,148.7z"/>
   <path class="fil1" d="M15845.28 7454.08c-35.32,2.15 -10.37,29.67 -90.8,-54.72 -38.23,-40.14 -41.43,-53.42 -70.93,-82.98l-318.11 -316.42c-99.47,-105.73 -26.13,-107.9 -211.17,-100.84 47.33,199.16 153.42,347.29 244.8,446.35 70.26,76.14 285.3,275.26 404.66,320.62l41.55 -212.01z"/>
   <path class="fil1" d="M14662.23 13357.5l314.26 80.01c40.41,-164.63 15.46,-406.95 13.83,-581.18l-320.03 18.83 -8.06 482.34z"/>
   <path class="fil2" d="M7608.77 11834.12c13.21,83.86 33.65,50.23 286.85,50.6l988.29 -1.3 1.48 -230.05 -964.27 -8.55c-185.27,0.45 -241.9,-26.53 -303.33,42.31l1245.04 0.12c-7.47,108.66 37.38,72.74 -93.74,92.88l-516.46 9.93c-181.6,5.01 -504.76,-30.53 -643.86,44.06z"/>
   <path class="fil0" d="M13182.1 14244.83l-55.7 -87.62c-40.44,-78.93 12.29,-8.9 -40.46,-70.9 -174.04,-3.71 -722.91,127.22 -876.22,202.13l7.11 139.73c178.44,14.7 684.53,-193.76 965.27,-183.34z"/>
   <path class="fil1" d="M4629.33 7484.29c22.44,82.15 13.28,114.21 53.07,182.3 180.54,-109.46 472.99,-350.42 537.82,-539.65 -1.32,-1.35 8.34,-192.69 11.38,-249.26l-571.57 580.61c-2.87,3.04 -12.73,17.7 -14.88,13.25 -2.19,-4.55 -10.44,8.66 -15.82,12.75z"/>
   <path class="fil4" d="M16784.63 13462.11l17.98 248.04 34.97 28.49c40.21,-109.85 -15.58,-66.43 77.28,-67.19l-18.59 -103.35c84.36,48.63 1.89,44.15 91.65,1.08l53.09 -122.29c14.64,-72.49 32.65,-137.65 32.78,-179.41 55.36,8.55 31.85,131.72 28.09,155.75l10.87 -269.88 -14.03 -141.34c-256.55,25.84 -110.82,52.24 -268.43,55.42 6.02,156.73 -27.32,104.21 -52.73,202.09 -15.88,61.13 -7.08,135.57 7.07,192.59z"/>
   <path class="fil0" d="M7324.32 14251.57c287.71,-4.03 632.87,140.73 895.4,182.2l29.06 -148.26c-157.92,-78.95 -680.78,-203.45 -894.47,-197.3 -37.87,43.06 -17.89,1.34 -28.88,73.06 -3.86,25.31 0.09,66.68 -1.11,90.3z"/>
   <polygon class="fil1" points="12423.09,13192.22 12885.58,13222.19 12883.22,12862.7 12419.78,12874.79 "/>
   <path class="fil1" d="M6155.24 7760.1c-126.98,65.26 -82.74,48.53 -209.48,30.13l-547.92 -54.9c-194.81,-9.65 -289.1,29.8 -283.51,-36.6 -68.76,38.94 -2.94,-27.64 -64.04,46.04 -24.67,29.75 -20.78,31.36 -43.72,77.93 194.81,20.84 384.69,105.06 592.9,120.5 116.68,8.65 216.85,-3.73 324.29,-35.6 50.92,-15.11 87.94,-26.86 132.14,-47.38 96.37,-44.73 67.06,-28.51 99.34,-100.12z"/>
   <path class="fil1" d="M8253.56 12569.72l4.42 591.98 216.55 -3.85 4.56 -1002.78c-60.11,-13.52 -58.62,-22.52 -125.85,-13.16 -153.18,21.33 -57.58,-2.49 -96.79,55.26l185.28 -31.38c19.39,127.57 31.4,184.83 -0.07,312.02 -70.4,45.87 -125.8,77.73 -188.1,91.91z"/>
   <path class="fil1" d="M7553.36 13217.21l452.84 -34.52c11.25,-21.12 19.69,-17.34 27.79,-66.18l-8.91 -252.22 -456.03 5.26 -15.69 347.66z"/>
   <path class="fil1" d="M14297.14 7770.32l107.32 87.99c139.1,70.46 296.21,94.27 453.95,87.38l525.42 -114.05c68.72,-31.77 28.91,-11.21 71.27,-60.72 -62.69,-50.15 -28.58,-37.24 -111.38,-74.7 -35.61,45.14 43.68,47.32 -127.6,45.98 -367.53,-2.87 -757.76,70.69 -918.98,28.12z"/>
   <polygon class="fil1" points="4656.6,13641.46 4965.79,13548.96 4968.01,13118.81 4643.04,13123.72 "/>
   <polygon class="fil1" points="15494.79,13554.46 15811.26,13624.02 15816.9,13125.06 15493.34,13119.72 "/>
   <path class="fil4" d="M3300.46 13381.1c47.3,61.82 50.67,276.83 41.01,362.71 2.5,-98.11 2.19,-180.74 49.79,-251.32l16.63 56.3c72.97,-25.45 88.48,-49.9 131.58,-111.84 16.6,33.97 25.98,80.78 56.48,116.79l98.35 74.87 -12.08 -585c-75.3,148.53 -48.79,242.39 -24.54,341.84 -15.32,-220.89 29.76,-32.8 -75.44,-112.46l2.18 -3.22c-112.36,48.59 -26.36,-33.94 -96.91,49.49 -8.15,-50.52 -65.59,-303.26 -85.85,-346.87l-102.48 10.64 1.28 398.07z"/>
   <path class="fil2" d="M9309.41 16716.37c-45.45,-28.86 -28.72,-4.21 -63.92,-56.13 -164.61,-242.8 -0.7,-47.98 -193.18,-188.86 -142.72,-104.48 75.55,-11.9 -274.05,-214.48 -359.33,-208.22 -162.15,-160.02 -680.12,-296.02 79.87,84.46 394.29,192.67 777.92,509.81 243.87,201.61 157.84,112.18 385.5,386.36l47.85 -140.68z"/>
   <path class="fil1" d="M17845.95 11508.93l98.75 519.74c103.11,-64.39 222.75,-194.73 276.17,-315.79 -74.43,-56.67 -159.62,-303.29 -194.24,-423.83 -149.79,111.36 -97.21,279.61 -180.68,219.88z"/>
   <path class="fil3" d="M11173.81 16714.71l49.67 140.29c208.89,-301.36 608.34,-592.52 943.36,-768.26 127.08,-66.66 93.07,-26.52 164.3,-100.54 -252.29,0.8 -717.53,290.98 -923.96,487.12 -21.05,20 -20.03,17.5 -37.81,35.58l-24.34 27.39c-180.89,177.77 -55.88,-55.3 -171.22,178.42z"/>
   <path class="fil1" d="M2258.71 11717.63c48.3,120.74 149.06,241.77 256.02,296.41l105.12 -462.8c-29.52,-68.3 -23.8,-69.85 -65.05,-132.83l-91.05 -113.82c-75.04,127.19 -116.91,317.51 -205.04,413.04z"/>
   <path class="fil1" d="M4402.35 13213.54c-85.68,43.32 -190.67,19.05 -232.42,51.43l-23.4 -103.99c-33.44,69.68 -15.93,547.57 -12.26,630.17l265.52 -79.79 2.56 -497.82z"/>
   <path class="fil1" d="M12204.59 12567.5c-117.91,-7.85 -92.35,-54.7 -209.53,-99.82 -10.77,161.01 -26.27,548.36 7.7,692.53l200.86 9.52 0.97 -602.23z"/>
   <polygon class="fil1" points="16056.04,13259.82 16051.86,13709.53 16320.11,13790.73 16320.63,13249.95 "/>
   <path class="fil5" d="M6977.68 18336.1l908.29 -69.38c-164.13,-98.45 -681.11,-171.01 -920.47,-181.56l-1.22 70.7c3,3.6 9.74,21.54 11.96,17.28 2.19,-4.21 7.16,11.89 10.76,17.83 66.09,-54.31 114.51,-63.75 154.2,53.62 -78.51,-66.82 -52.57,-50.12 -114.01,-57.06l-49.51 148.57z"/>
   <path class="fil5" d="M13494.91 18342.17l-79.39 -90.98c-1.67,-7.89 -7.69,-9 -11.52,-13.5 -147.2,-1.55 -67.24,-16.73 -125.54,30.17 30.23,-65.85 -6.35,-11.19 49.82,-47.15l101.12 -53.01c8.8,-15.4 36.72,-76.08 40,-81.28 -247.93,8.89 -730.51,76.27 -898.51,181.5l924.02 74.25z"/>
   <path class="fil5" d="M11389.24 18109.72c-99.43,59.19 -134.65,112.11 -218.29,217.18 -80.11,100.63 -129.73,92.95 -85.91,246.07 95.11,-37.36 301.09,-207.5 459.83,-304.28l130.62 -92.58c-21.1,-98.81 46.88,-52.23 -58.96,-65.25 26.37,-87.69 38.98,-32.13 45.91,-60.47 2.42,-9.91 13.79,-5.78 18.23,-1.32l-95.86 -43.94c-32.83,59.81 -112.28,56.49 -195.51,136.94l-0.06 -32.35z"/>
   <path class="fil2" d="M13597.93 14222.71l690.25 -22.07 -0.52 -109.41c-0.67,8.04 -9.54,41.95 -12.1,47.08 -22.35,45.05 -13.77,28.74 -35.95,57.24 4.13,-148.17 -79.5,-139.68 -376.55,-151.55 -161.84,-6.47 -430.99,-48.73 -557.38,18.54l204.61 25.63c39.16,97.59 42.36,-43.58 87.64,134.54z"/>
   <path class="fil1" d="M8711.65 12488.75l-0.55 650.75 176.85 0.14 3.99 -687.34c2.05,-94.98 7.46,-166.12 -35.86,-233.97l19.51 289.35 -163.94 -18.93z"/>
   <path class="fil1" d="M11744.35 12511.59l-146.61 10.93 -10.29 -294.7 153.73 20.35c-27.54,-80.48 39.38,-29.09 -70.37,-50.6 -0.31,-0.05 -89.55,2.35 -99.93,2.28l9.58 934.19 168.83 13.33 -4.94 -635.78z"/>
   <path class="fil5" d="M8875.26 18216.92c92.93,60.65 177.99,120.63 264.98,182.26 61.92,43.87 180.53,155.44 247.29,162.14 53.37,-191.69 -180.08,-357.89 -309.91,-486.42l-100.41 -35.25 -101.95 177.27z"/>
   <path class="fil2" d="M6852.94 14216.22l22.47 -51.32c97.97,38.01 82.29,19.85 176.94,-10.99 -15.28,-84.42 15.27,-40.6 -52.14,-76.83l52.03 -12.03c-76.94,-41.37 -269.99,-29.07 -381.55,-25.78 -116.18,3.43 -143.65,38.7 -186.53,46.34 -32.28,5.79 -18.1,-91.73 -48.8,46.74l-30.4 -73.79c-31.05,70.74 -30.12,46.16 -51.57,119.81 -25.17,-105.44 -9.31,-34.41 -46.89,-75.1l-19.99 80.37c-0.89,-4.26 -6.52,-17.8 -7.94,-13.92l-39.55 -59.68c-6.49,41.69 0.95,32.34 -17.14,61.91l631.06 44.27z"/>
   <path class="fil1" d="M14541.13 14796.93c4.76,3.31 -13.36,35.48 163.77,48.93 56.47,4.29 96.84,1.43 153.31,5.97 99.36,7.99 223.64,13.91 303.5,44.83l-5.95 -164.57c-33.7,-14.96 -374.2,-87.78 -472.02,-97.83 -7.55,85.54 -16.8,79.15 -22.59,170.28l-120.02 -7.61z"/>
   <path class="fil1" d="M3100.37 9358.42l120.68 265.55c96.48,-91.46 151.78,-218.62 222.38,-351.58 -25,-27.24 -17.03,-9.09 -40.97,-51.93l-71.66 -161.05 -145.67 214.06c-64.54,79.72 -18.03,60.03 -84.76,84.95z"/>
   <path class="fil1" d="M17577.63 10168.13c46.31,123.73 98.78,281.15 187.19,341.52l192.77 -223.81 -57.76 -33.11c-96.4,-69.79 -99.66,-162.87 -156.43,-249.16l-83.79 150.63 -81.98 13.93z"/>
   <path class="fil1" d="M2513.56 10275.45c46.77,94.87 107.35,192.88 205.2,235.82l138.01 -282.44c-24.49,-27.38 -5.49,10.78 -42.54,-60.23 -52.77,-101.18 -20.32,-113.23 -95.3,-203.74 -27.96,111.42 -94.37,281.66 -205.37,310.59z"/>
   <path class="fil1" d="M17043.19 9280.7l176.81 344.17c80.25,-73.38 103.11,-147.93 147.79,-258.14 -103.8,-77.57 -155.5,-182.92 -216.6,-317.68l-108 231.65z"/>
   <path class="fil2" d="M2909.3 10733.46c74.78,-97.14 126.82,-158.65 198.58,-288.78 55.75,-101.11 120.8,-242.66 166.3,-338.53l-158.71 -68.35c-42.8,220.86 -200.4,519.62 -206.17,695.66z"/>
   <path class="fil6" d="M13182.1 14244.83c135.2,0.45 271.32,-39.53 415.83,-22.12 -45.28,-178.12 -48.48,-36.95 -87.64,-134.54l-204.61 -25.63c-42.67,-2.67 -62.08,-7.12 -107.41,-4.5 -9.9,0.57 -40.97,2.74 -50.09,4.45 -100.27,18.69 -24.46,5.06 -62.24,23.82 52.75,62 0.02,-8.03 40.46,70.9l55.7 87.62z"/>
   <path class="fil1" d="M14509.24 6674.41c66.53,121.62 232.93,215.54 393.36,266.51 7.48,-108.7 38.24,-353.33 -30.99,-418.81l6.85 142.01c-132.35,5.42 -228.47,60.48 -369.22,10.29z"/>
   <path class="fil1" d="M5965.89 6683.14l-374.32 5.83 -6.1 -95.55c-61.73,41.19 -29.11,258.71 -29.4,345.25 130.52,-32.02 346.68,-135.82 409.82,-255.53z"/>
   <path class="fil3" d="M17196.48 10098.44c50.88,118.62 88.59,216.38 150.49,324.07 58.79,102.28 116.96,218.34 194.74,280.12l-209.93 -675.58 -135.3 71.39z"/>
   <path class="fil4" d="M11077.7 12623.93l7.14 312.39c63.68,-28.58 69.36,13.63 -2.03,-74.93 221.93,-37.62 -103.09,-63.74 142.35,-42.49l2.58 -132.17c60.66,33.9 82.28,-17.81 85.23,191.46l0 -204.59 17.91 -141.47 -63.7 52.23c-18.01,16.89 -12.16,20.58 -12.41,21.08 18.09,-36 8.36,-8.37 19.25,-88.78 -102.93,52.93 -18.19,24.28 -117.01,43.63 25.12,-85.09 32.52,-44.21 -31.08,-75.37l-48.23 139.01z"/>
   <path class="fil2" d="M3407.89 13548.79c-3.29,4.19 -7.15,11.33 -8.51,13.54l-0.19 86.83c5.38,4.49 11.48,9.62 17.17,14.51 118.31,101.44 22.77,60.22 144.16,71.39l-65.42 31.26c53.19,31.27 54.06,36.58 155.57,0.22 40.18,-14.4 29.79,-32.49 43.63,-137.93l-98.35 -74.87c-30.5,-36.01 -39.88,-82.82 -56.48,-116.79 -43.1,61.94 -58.61,86.39 -131.58,111.84z"/>
   <path class="fil1" d="M6797.32 12246.07c-64.4,30.9 -37.08,-27.88 -57.53,51.88l438.8 -2.87 2.63 -352.76 -66.63 -23.61c-6.45,119.43 -97.26,255.66 -144.72,344.66l-172.55 -17.3z"/>
   <path class="fil6" d="M6852.94 14216.22c176.67,-18.65 306.15,29.1 471.38,35.35 1.2,-23.62 -2.75,-64.99 1.11,-90.3 10.99,-71.72 -8.99,-30 28.88,-73.06 -74.46,-42.61 -202.16,-35.67 -302.07,-23.16l-52.03 12.03c67.41,36.23 36.86,-7.59 52.14,76.83 -94.65,30.84 -78.97,49 -176.94,10.99l-22.47 51.32z"/>
   <path class="fil2" d="M16802.61 13710.15l239.62 61.86c6.58,-32.27 -14.57,-13.28 10.21,-60.42 45.82,-87.16 -7.41,-13.9 74.59,-86.07l-25.15 -202.29c3.76,-24.03 27.27,-147.2 -28.09,-155.75 -0.13,41.76 -18.14,106.92 -32.78,179.41l-53.09 122.29c-89.76,43.07 -7.29,47.55 -91.65,-1.08l18.59 103.35c-92.86,0.76 -37.07,-42.66 -77.28,67.19l-34.97 -28.49z"/>
   <path class="fil1" d="M10013.34 8023.83c38.98,194.75 295.9,234.4 418.57,42.65 -6.44,-3.16 -14.71,-7.48 -19.19,-9.78 -314.83,-160.98 -188.77,63.14 -399.38,-32.87z"/>
   <path class="fil4" d="M13687.76 12273.76c-100.97,-125.58 -188.81,-176.06 -276.53,-358.94l-83.85 6.1c-25.28,98.41 29.5,158.69 86.38,242.34 88.44,130.14 115.09,84.75 274,110.5z"/>
   <path class="fil1" d="M5674.4 14814.14l-45.46 -15.66c-3.74,-113.42 -6.48,-45.96 24.95,-131.94l-342.81 80.93 -2.59 135.75c158.5,-21.01 291.12,-8.47 365.91,-69.08z"/>
   <path class="fil5" d="M13687.76 12273.76c-158.91,-25.75 -185.56,19.64 -274,-110.5 -56.88,-83.65 -111.66,-143.93 -86.38,-242.34 -78.93,26.48 -33.33,-41.05 -57.91,71.24 -0.86,3.96 2.38,90.71 2.61,102.52 1.45,71.96 -1.5,144.48 -2.14,216.48l417.82 -37.4z"/>
   <path class="fil4" d="M6797.32 12246.07l172.55 17.3c47.46,-89 138.27,-225.23 144.72,-344.66l-70.63 -9.25c-48.73,151.03 -211.57,250.72 -246.64,336.61z"/>
   <path class="fil6" d="M14041.91 12881.89l188.83 1.6c4.45,71.05 10.83,138.59 11.68,206.39 1.47,114.96 -15.82,134.22 28.64,211.51l26.22 -517.56 -844.21 -30.05c-125.76,15.5 -63.75,8.38 -94.21,48.94 89.96,-25.62 686.42,-25.2 838.93,-6.5 145.03,17.79 53.32,-1.43 85.98,38.62 -6.58,3.32 -15.82,1.48 -19.9,9.7 -4.1,8.28 -15.01,6.86 -20.89,7.79 -99.78,15.88 -114.46,-10.87 -201.07,29.56z"/>
   <path class="fil3" d="M3964.49 18006.16c36.58,74.9 42.41,75.64 102.87,125.92l64.74 -24.77c160.15,-51 58.52,35.98 124.46,-65.69 12.63,-19.51 -4.06,-25.61 71.56,-5.54l9.55 -79.53 -37.81 -48.87c-162.2,83.48 -189.42,83.68 -335.37,98.48z"/>
   <path class="fil6" d="M5653.89 14666.54c-31.43,85.98 -28.69,18.52 -24.95,131.94l45.46 15.66c112.55,27.04 141.6,34.7 233.17,-17.3l-128.88 10.94c-2.42,-35.2 -7.07,-77.57 -3.56,-112.19 7.23,-71.46 -3.19,-10.32 20.51,-56.85l-141.75 27.8z"/>
   <path class="fil6" d="M5192.43 13499.85c48.35,-48.72 15.81,59.9 40.16,-62.29l4.9 -248.25c-13.66,-131.83 7.13,-48.35 -45.06,-79.86 -37.16,69.21 -27.68,94.65 -27.3,184.32 0.11,28.47 -1.62,78.14 -0.02,103.93l27.32 102.15z"/>
   <path class="fil1" d="M15265.63 13503.29c14,-23.42 17.2,20.46 29.77,-80.58 9.65,-77.46 9.49,-245.16 -29.77,-307.54 -24.84,37.88 -11.19,-43.96 -29.72,75.44 -14.46,93.42 -24.8,239.17 29.72,312.68z"/>
  </g>
 </g>
</svg>
